<svg width="292" height="604" viewBox="0 0 292 604" fill="none" xmlns="http://www.w3.org/2000/svg">
<path d="M153.378 988.105C209.399 932.32 314.385 766.689 286.167 550.455C250.895 280.161 146.462 261.255 144.388 86.1946C142.313 -88.8658 249.831 -375.265 286.167 -438.986" stroke="white" stroke-opacity="0.08" stroke-width="2.21016"/>
<path d="M139.648 988.105C83.2096 932.32 -22.5602 766.689 5.86804 550.455C41.4033 280.161 146.616 261.255 148.706 86.1946C150.796 -88.8658 42.4756 -375.265 5.86805 -438.986" stroke="white" stroke-opacity="0.08" stroke-width="2.21016"/>
<path d="M115.927 988.105C172.058 932.32 277.252 766.689 248.978 550.455C213.636 280.161 146.996 257.754 144.917 82.6934C142.839 -92.367 212.57 -375.265 248.978 -438.986" stroke="white" stroke-opacity="0.08" stroke-width="2.21016"/>
<path d="M177.175 988.105C121.489 932.32 17.1304 766.689 45.1795 550.455C80.2409 280.161 146.352 257.754 148.414 82.6934C150.477 -92.367 81.2988 -375.265 45.1795 -438.986" stroke="white" stroke-opacity="0.08" stroke-width="2.21016"/>
<path d="M85.3009 988.105C141.585 932.32 230.274 777.893 201.923 561.658C166.485 291.365 147.724 262.655 145.64 87.595C143.555 -87.4653 182.207 -375.265 218.715 -438.986" stroke="white" stroke-opacity="0.08" stroke-width="2.21016"/>
<path d="M207.785 988.105C151.501 932.32 62.8121 777.893 91.1625 561.658C126.601 291.365 145.362 262.655 147.446 87.595C149.531 -87.4653 110.879 -375.265 74.3711 -438.986" stroke="white" stroke-opacity="0.08" stroke-width="2.21016"/>
<path d="M102.8 987.006C138.785 931.22 195.488 776.793 177.362 560.559C154.705 290.266 148.845 253.853 147.513 78.7928C146.18 -96.2676 164.757 -376.364 188.098 -440.086" stroke="white" stroke-opacity="0.08" stroke-width="2.21016"/>
<path d="M191.379 987.006C154.933 931.22 97.5033 776.793 115.861 560.559C138.809 290.266 144.744 253.853 146.094 78.7928C147.444 -96.2676 128.628 -376.364 104.988 -440.086" stroke="white" stroke-opacity="0.08" stroke-width="2.21016"/>
<path d="M120.298 987.006C132.754 931.22 152.382 776.793 146.108 560.559C138.265 290.266 146.569 253.153 146.108 78.0925C145.647 -96.9678 141.745 -376.364 149.824 -440.086" stroke="white" stroke-opacity="0.08" stroke-width="2.21016"/>
</svg>
