<svg width="1440" height="470" viewBox="0 0 1440 470" fill="none" xmlns="http://www.w3.org/2000/svg">
<path d="M1655.97 223.076C1565.83 132.561 1298.22 -37.0709 948.834 8.52178C512.108 65.5126 481.56 234.25 198.706 237.602C-84.1479 240.955 -546.897 67.2323 -649.856 8.52178" stroke="white" stroke-opacity="0.08" stroke-width="1.76692"/>
<path d="M1655.97 245.266C1565.83 336.457 1298.22 507.354 948.834 461.421C512.108 404.005 481.56 234.008 198.706 230.631C-84.1479 227.254 -546.897 402.273 -649.856 461.421" stroke="white" stroke-opacity="0.08" stroke-width="1.76692"/>
<path d="M1655.97 283.589C1565.83 192.895 1298.22 22.9283 948.834 68.6111C512.108 125.715 475.903 233.388 193.049 236.747C-89.805 240.106 -546.897 127.438 -649.856 68.6111" stroke="white" stroke-opacity="0.08" stroke-width="1.76692"/>
<path d="M1655.97 184.642C1565.83 274.616 1298.22 443.235 948.834 397.914C512.108 341.264 475.903 234.445 193.049 231.112C-89.805 227.78 -546.897 339.555 -649.856 397.914" stroke="white" stroke-opacity="0.08" stroke-width="1.76692"/>
<path d="M1655.97 333.065C1565.83 242.124 1316.32 98.8243 966.937 144.632C530.211 201.891 483.823 232.204 200.969 235.572C-81.8851 238.94 -546.897 176.488 -649.856 117.501" stroke="white" stroke-opacity="0.08" stroke-width="1.76692"/>
<path d="M1655.97 135.17C1565.83 226.111 1316.32 369.41 966.937 323.603C530.211 266.343 483.823 236.03 200.969 232.662C-81.8851 229.294 -546.897 291.746 -649.856 350.733" stroke="white" stroke-opacity="0.08" stroke-width="1.76692"/>
<path d="M1654.2 304.793C1564.07 246.65 1314.55 155.033 965.171 184.319C528.445 220.928 469.611 230.395 186.758 232.549C-96.0963 234.702 -548.662 204.686 -651.621 166.974" stroke="white" stroke-opacity="0.08" stroke-width="1.76692"/>
<path d="M1654.2 161.672C1564.07 220.56 1314.55 313.352 965.171 283.69C528.445 246.613 469.611 237.024 186.757 234.843C-96.0963 232.662 -548.662 263.062 -651.621 301.259" stroke="white" stroke-opacity="0.08" stroke-width="1.76692"/>
<path d="M1654.2 276.522C1564.07 256.396 1314.55 224.682 965.171 234.82C528.445 247.492 468.48 234.074 185.626 234.82C-97.2277 235.565 -548.662 241.87 -651.621 228.815" stroke="white" stroke-opacity="0.08" stroke-width="1.76692"/>
</svg>
