<svg xmlns="http://www.w3.org/2000/svg" width="31" height="31" viewBox="0 0 31 31" fill="none">
  <path fill-rule="evenodd" clip-rule="evenodd" d="M15.4978 2.90576C11.9315 2.90576 9.04044 5.79683 9.04044 9.36314V11.7201C6.82985 12.1688 5.16602 14.1232 5.16602 16.4663V23.5694C5.16602 26.2441 7.33431 28.4124 10.009 28.4124H20.9866C23.6613 28.4124 25.8296 26.2441 25.8296 23.5694V16.4663C25.8296 14.1232 24.1658 12.1688 21.9552 11.7201V9.36314C21.9552 5.79683 19.0641 2.90576 15.4978 2.90576ZM20.018 11.6232V9.36314C20.018 6.86672 17.9942 4.84297 15.4978 4.84297C13.0014 4.84297 10.9777 6.86672 10.9777 9.36314V11.6232H20.018ZM15.4978 17.112C16.0328 17.112 16.4664 17.5457 16.4664 18.0806V21.955C16.4664 22.49 16.0328 22.9236 15.4978 22.9236C14.9629 22.9236 14.5292 22.49 14.5292 21.955V18.0806C14.5292 17.5457 14.9629 17.112 15.4978 17.112Z" fill="white"/>
</svg>