
<svg width="158" height="158" viewBox="0 0 158 158" fill="none" xmlns="http://www.w3.org/2000/svg">
<rect width="157.112" height="157.112" rx="32" fill="url(#paint0_radial_213_1590)"/>
<path d="M94.6527 61.8708C81.5613 29.3093 82.6368 31.9053 81.8395 31.0338C81.1905 30.3477 80.4673 30.3848 79.6143 31.1636C79.0024 31.7013 78.7243 32.2947 76.8143 37.0417C75.9057 39.3225 74.3852 43.0682 73.4581 45.3675C72.5309 47.6668 70.5468 52.5436 69.0634 56.2151C67.5799 59.8867 65.5402 64.8933 64.5574 67.3409C63.5561 69.7886 61.9429 73.7939 60.9415 76.2416C57.9747 83.5846 55.731 89.0919 54.7667 91.4468C50.0012 103.073 46.5336 111.566 45.2171 114.811C44.3456 116.943 43.2144 119.725 42.7138 120.967C42.1946 122.21 41.6939 123.675 41.5827 124.194C41.2674 125.603 41.4343 125.733 43.5111 125.603C45.7177 125.492 47.1085 124.954 48.2581 123.804C49.3707 122.692 49.7045 122.024 51.6886 116.925C52.5601 114.644 58.3455 100.162 64.5018 84.7714C70.6766 69.3621 76.7587 54.194 78.0196 51.0417C79.2806 47.8894 80.3931 45.2192 80.5044 45.1079C80.6342 44.9781 80.7825 44.9967 80.9494 45.1821C81.0978 45.3304 83.9719 52.3397 87.3282 60.7582C90.703 69.1767 95.0421 79.9687 96.9706 84.7714C100.939 94.6177 104.406 103.37 108.504 113.791C111.972 122.599 112.491 123.563 114.401 124.602C115.959 125.455 118.684 125.937 119.704 125.547C120.298 125.325 120.057 123.99 118.907 121.283C117.739 118.52 115.922 114.125 114.104 109.619C111.471 103.129 105.686 88.9621 102.292 80.6919C100.29 75.7966 96.8593 67.3224 94.6527 61.8708Z" fill="white"/>
<defs>
<radialGradient id="paint0_radial_213_1590" cx="0" cy="0" r="1" gradientUnits="userSpaceOnUse" gradientTransform="translate(74.3317 192.898) rotate(-90) scale(183.253)">
<stop offset="0.203722" stop-color="#0B244D"/>
<stop offset="0.529131" stop-color="#061854"/>
<stop offset="1" stop-color="#010E4E"/>
</radialGradient>
</defs>
</svg>
