<svg xmlns="http://www.w3.org/2000/svg" width="26" height="26" viewBox="0 0 26 26" fill="none">
  <path d="M12.8307 3.21094C13.5437 6.06311 14.9698 8.3805 17.109 10.1631C19.2481 11.9457 20.3177 13.9066 20.3177 16.0457C20.3177 18.0314 19.5289 19.9357 18.1248 21.3398C16.7207 22.7439 14.8164 23.5327 12.8307 23.5327C10.845 23.5327 8.9407 22.7439 7.53663 21.3398C6.13255 19.9357 5.34375 18.0314 5.34375 16.0457C5.34375 14.8886 5.71905 13.7627 6.41332 12.837C6.41332 13.5462 6.69503 14.2263 7.19649 14.7278C7.69794 15.2292 8.37806 15.5109 9.08723 15.5109C9.79639 15.5109 10.4765 15.2292 10.978 14.7278C11.4794 14.2263 11.7611 13.5462 11.7611 12.837C11.7611 10.6979 10.1568 9.62833 10.1568 7.4892C10.1568 6.06311 11.0481 4.63702 12.8307 3.21094Z" fill="white"/>
</svg>