<svg xmlns="http://www.w3.org/2000/svg" width="20" height="20" viewBox="0 0 20 20" fill="none">
  <path d="M9.99992 1.6665C7.92885 1.6665 6.24992 3.34544 6.24992 5.4165C6.24992 7.48757 7.92885 9.1665 9.99992 9.1665C12.071 9.1665 13.7499 7.48757 13.7499 5.4165C13.7499 3.34544 12.071 1.6665 9.99992 1.6665Z" fill="white"/>
  <path d="M10 9.99984C7.20189 9.99984 4.96878 11.4716 3.79383 13.657C3.26947 14.6322 3.46711 15.6446 4.0484 16.3677C4.60948 17.0657 5.51971 17.4998 6.49606 17.4998H13.504C14.4803 17.4998 15.3905 17.0657 15.9516 16.3677C16.5329 15.6446 16.7305 14.6322 16.2062 13.657C15.0312 11.4716 12.7981 9.99984 10 9.99984Z" fill="white"/>
</svg>