<svg width="32" height="32" viewBox="0 0 32 32" fill="none" xmlns="http://www.w3.org/2000/svg">
<path d="M19.6882 12.1769C16.6886 4.71618 16.9351 5.311 16.7524 5.11131C16.6037 4.95411 16.438 4.96261 16.2425 5.14105C16.1023 5.26427 16.0386 5.40023 15.601 6.4879C15.3928 7.01049 15.0444 7.86873 14.8319 8.39557C14.6195 8.92241 14.1649 10.0398 13.825 10.8811C13.4851 11.7223 13.0177 12.8695 12.7926 13.4303C12.5631 13.9911 12.1935 14.9089 11.9641 15.4697C11.2843 17.1522 10.7702 18.414 10.5492 18.9536C9.45731 21.6176 8.6628 23.5635 8.36114 24.307C8.16145 24.7956 7.90228 25.4329 7.78757 25.7176C7.6686 26.0023 7.55389 26.3379 7.52839 26.4569C7.45617 26.7798 7.4944 26.8095 7.97026 26.7798C8.47586 26.7543 8.79451 26.6311 9.05793 26.3676C9.31285 26.1127 9.38933 25.9598 9.84394 24.7914C10.0436 24.2688 11.3692 20.9505 12.7798 17.4241C14.1946 13.8934 15.5882 10.418 15.8771 9.69568C16.166 8.9734 16.421 8.36158 16.4464 8.33609C16.4762 8.30635 16.5102 8.3106 16.5484 8.35308C16.5824 8.38707 17.241 9.99309 18.01 11.922C18.7832 13.8509 19.7774 16.3237 20.2193 17.4241C21.1285 19.6802 21.923 21.6856 22.862 24.0733C23.6565 26.0915 23.7755 26.3124 24.2131 26.5503C24.57 26.7458 25.1946 26.8562 25.4282 26.767C25.5642 26.716 25.509 26.4101 25.2455 25.7898C24.9779 25.1568 24.5615 24.1498 24.1451 23.1174C23.5418 21.6303 22.2162 18.3843 21.4387 16.4894C20.9798 15.3677 20.1938 13.4261 19.6882 12.1769Z" fill="white"/>
</svg>
