<svg xmlns="http://www.w3.org/2000/svg" width="21" height="24" viewBox="0 0 21 24" fill="none">
  <path fill-rule="evenodd" clip-rule="evenodd" d="M7.74948 16.8289H5.50621C4.08746 16.8289 2.742 17.459 1.83374 18.549L0.558576 20.0792C-0.738783 21.636 0.368274 23.9996 2.39481 23.9996H18.481C20.5075 23.9996 21.6146 21.636 20.3172 20.0792L19.042 18.549C18.1338 17.459 16.7883 16.8289 15.3696 16.8289H13.1269V18.6215C13.1269 20.1067 11.923 21.3106 10.4379 21.3106C8.95278 21.3106 7.74886 20.1067 7.74886 18.6215L7.74948 16.8289Z" fill="#E7E7E7"/>
  <path d="M11.3349 18.6215C11.3349 19.1166 10.9336 19.5179 10.4386 19.5179C9.94354 19.5179 9.54224 19.1166 9.54224 18.6215L9.54801 1.88984C9.54801 0.569744 10.6182 -0.500404 11.9383 -0.500404H18.3704C19.2588 -0.500404 19.8366 0.434554 19.4393 1.22919L18.1811 3.74561C18.0129 4.08207 18.0129 4.4781 18.1811 4.81456L19.4393 7.33098C19.8366 8.12561 19.2588 9.06057 18.3704 9.06057H11.3349V18.6215Z" fill="#E7E7E7"/>
</svg>