<svg xmlns="http://www.w3.org/2000/svg" width="24" height="24" viewBox="0 0 24 24" fill="none">
  <path d="M12.0001 4C9.79099 4 8.00012 5.79086 8.00012 8C8.00012 10.2091 9.79099 12 12.0001 12C14.2093 12 16.0001 10.2091 16.0001 8C16.0001 5.79086 14.2093 4 12.0001 4Z" fill="white"/>
  <path d="M12.0001 13.5C9.81011 13.5 7.77096 14.1557 6.07105 15.2816C5.35119 15.7584 5.00012 16.5653 5.00012 17.3536C5.00012 18.8152 6.18496 20 7.64653 20H16.3537C17.8153 20 19.0001 18.8152 19.0001 17.3536C19.0001 16.5654 18.6491 15.7584 17.9292 15.2816C16.2293 14.1557 14.1901 13.5 12.0001 13.5Z" fill="white"/>
  <path d="M16.1669 11.3334C16.1669 9.72258 17.4727 8.41675 19.0835 8.41675C20.6944 8.41675 22.0002 9.72258 22.0002 11.3334C22.0002 12.9442 20.6944 14.2501 19.0835 14.2501C18.7147 14.2501 18.3618 14.1816 18.0369 14.0567C17.8758 13.9612 17.7075 13.8767 17.533 13.8042C16.7123 13.2881 16.1669 12.3745 16.1669 11.3334Z" fill="white"/>
  <path d="M19.1361 19.9833H20.9859C22.0984 19.9833 23.0002 19.0815 23.0002 17.9691C23.0002 17.3726 22.7342 16.7502 22.1743 16.3793C21.3252 15.8169 20.3533 15.4245 19.3083 15.2508C19.7449 15.8917 20.0001 16.666 20.0001 17.5C20.0001 18.4383 19.6771 19.3011 19.1361 19.9833Z" fill="white"/>
  <path d="M4.91664 8.41675C6.52747 8.41675 7.83331 9.72258 7.83331 11.3334C7.83331 12.3745 7.28787 13.2881 6.46718 13.8042C6.29266 13.8767 6.12438 13.9612 5.96337 14.0566C5.63847 14.1816 5.28555 14.2501 4.91664 14.2501C3.30581 14.2501 1.99996 12.9442 1.99996 11.3334C1.99996 9.72258 3.30581 8.41675 4.91664 8.41675Z" fill="white"/>
  <path d="M4.00008 17.5C4.00008 16.666 4.2553 15.8917 4.6919 15.2508C3.6469 15.4245 2.67501 15.8169 1.8259 16.3793C1.26596 16.7502 1 17.3726 1 17.9691C1 19.0815 1.90182 19.9833 3.01427 19.9833H4.86411C4.32314 19.3011 4.00008 18.4383 4.00008 17.5Z" fill="white"/>
</svg>