<svg xmlns="http://www.w3.org/2000/svg" width="32" height="36" viewBox="0 0 32 36" fill="none">
  <path d="M9.27996 10.3296C9.27996 6.64775 12.2477 3.9816 15.9085 4.37464C19.5694 4.76768 22.5371 8.07107 22.5371 11.753V17.753C22.5371 21.4349 19.5694 24.101 15.9085 23.708C12.2477 23.3149 9.27996 20.0115 9.27996 16.3296V10.3296Z" fill="white"/>
  <path d="M7.70399 19.76C7.48414 19.2303 6.89799 18.9364 6.39479 19.1035C5.8916 19.2706 5.6619 19.8354 5.88176 20.3651C7.44256 24.1255 10.8583 27.0866 14.9141 27.8896V29.9345C14.9141 30.4868 15.3593 30.9823 15.9084 31.0412C16.4575 31.1002 16.9027 30.7003 16.9027 30.148V28.1031C20.9585 28.171 24.3743 25.9433 25.935 22.5181C26.1549 22.0356 25.9252 21.4214 25.422 21.1463C24.9188 20.8711 24.3327 21.0392 24.1128 21.5217C22.731 24.5541 19.5763 26.435 15.9084 26.0412C12.2405 25.6474 9.08577 23.0891 7.70399 19.76Z" fill="white"/>
</svg>