<svg xmlns="http://www.w3.org/2000/svg" width="32" height="37" viewBox="0 0 32 37" fill="none">
  <g clip-path="url(#clip0_2099_466)">
    <path d="M17.7655 10.4731C17.7655 7.3471 15.2615 5.2025 12.1727 5.68299C9.08385 6.16347 6.57986 9.08709 6.57986 12.2131C6.57985 15.3391 9.08385 17.4837 12.1727 17.0032C15.2615 16.5227 17.7655 13.5991 17.7655 10.4731Z" fill="white"/>
    <path d="M23.3584 9.60309C23.3584 7.58039 21.7381 6.19271 19.7395 6.50361C19.1944 6.58841 18.7525 6.20995 18.7525 5.6583C18.7525 5.10666 19.1944 4.59072 19.7395 4.50593C22.8283 4.02545 25.3323 6.17005 25.3323 9.29603C25.3323 12.422 22.8283 15.3456 19.7395 15.8261C19.1944 15.9109 18.7525 15.5325 18.7525 14.9808C18.7525 14.4292 19.1944 13.9132 19.7395 13.8284C21.7381 13.5175 23.3584 11.6258 23.3584 9.60309Z" fill="white"/>
    <path d="M22.5312 27.804C21.719 28.882 20.4369 29.6598 19.0809 29.8707L5.26328 32.0201C3.90728 32.2311 2.62512 31.8521 1.81299 31.0268C0.97413 30.1744 0.649543 28.8386 1.30972 27.344C3.14362 23.1923 7.33402 19.7535 12.1721 19.001C17.0101 18.2484 21.2005 20.3834 23.0344 23.9646C23.6946 25.2538 23.37 26.6906 22.5312 27.804Z" fill="white"/>
    <path d="M24.3461 18.175C23.8323 18.0708 23.2683 18.4307 23.0863 18.979C22.9043 19.5273 23.1733 20.0563 23.6871 20.1606C26.1327 20.6568 28.1019 22.4324 29.0342 24.5142C29.2244 24.9389 29.1298 25.3615 28.8311 25.7513C28.5095 26.1711 27.9495 26.535 27.3065 26.635C26.7614 26.7198 26.3195 27.2357 26.3195 27.7874C26.3195 28.339 26.7614 28.7175 27.3065 28.6327C28.4805 28.4501 29.5931 27.7801 30.3127 26.8408C31.0553 25.8717 31.3704 24.6103 30.8517 23.4521C29.7274 20.9417 27.3694 18.7884 24.3461 18.175Z" fill="white"/>
  </g>
  <defs>
    <clipPath id="clip0_2099_466">
      <rect width="31.9629" height="31.9629" fill="white" transform="matrix(0.988117 -0.153707 0 1 0 4.91292)"/>
    </clipPath>
  </defs>
</svg>