<svg xmlns="http://www.w3.org/2000/svg" width="32" height="36" viewBox="0 0 32 36" fill="none">
  <path fill-rule="evenodd" clip-rule="evenodd" d="M8.94857 3.62741C6.9351 3.41123 5.30286 4.87761 5.30286 6.90266V26.236C5.30286 28.261 6.9351 30.0779 8.94857 30.2941L24.1943 31.9309C25.4756 32.0685 26.5143 31.1353 26.5143 29.8466V7.84664C26.5143 6.55798 25.4756 5.40179 24.1943 5.26423L8.94857 3.62741ZM7.29143 26.1162V26.4495C7.29143 27.37 8.03336 28.1958 8.94857 28.2941L24.1943 29.9309C24.3773 29.9505 24.5257 29.8172 24.5257 29.6331V25.9428C24.4175 25.9468 24.3068 25.943 24.1943 25.9309L9.28 24.3297C8.18174 24.2117 7.29143 25.0116 7.29143 26.1162ZM11.6 9.57874C11.0509 9.51978 10.6057 9.9197 10.6057 10.472C10.6057 11.0243 11.0509 11.5198 11.6 11.5787L20.2171 12.5039C20.7663 12.5629 21.2114 12.1629 21.2114 11.6106C21.2114 11.0584 20.7663 10.5629 20.2171 10.5039L11.6 9.57874ZM10.6057 15.8053C10.6057 15.253 11.0509 14.8531 11.6 14.9121L16.24 15.4102C16.7891 15.4692 17.2343 15.9647 17.2343 16.517C17.2343 17.0693 16.7891 17.4692 16.24 17.4102L11.6 16.9121C11.0509 16.8531 10.6057 16.3576 10.6057 15.8053Z" fill="white"/>
</svg>