<svg xmlns="http://www.w3.org/2000/svg" width="32" height="37" viewBox="0 0 32 37" fill="none">
  <path fill-rule="evenodd" clip-rule="evenodd" d="M2.63501 14.8421C2.63501 12.0807 4.84698 9.498 7.57559 9.07355L16.1393 7.74142C18.8679 7.31697 21.0799 9.21146 21.0799 11.9729V13.3554L25.6481 10.3332C27.1811 9.31905 28.9848 10.1666 28.9848 11.9012V20.9198C28.9848 22.6543 27.1811 24.0631 25.6481 23.5258L21.0799 21.9248V23.3062C21.0799 26.0676 18.8679 28.6503 16.1393 29.0748L7.57559 30.4069C4.84698 30.8313 2.63501 28.9368 2.63501 26.1754V14.8421ZM21.0799 19.6888L26.5319 21.5995C26.7509 21.6762 27.0086 21.475 27.0086 21.2272V12.2086C27.0086 11.9608 26.7509 11.8397 26.5319 11.9846L21.0799 15.5915V19.6888Z" fill="white"/>
</svg>